<svg xmlns="http://www.w3.org/2000/svg" xmlns:xlink="http://www.w3.org/1999/xlink" width="300" zoomAndPan="magnify" viewBox="0 0 224.87999 337.499995" height="450" preserveAspectRatio="xMidYMid meet" version="1.0"><defs><clipPath id="6f50919653"><path d="M 0.105469 0 L 224.652344 0 L 224.652344 336.996094 L 0.105469 336.996094 Z M 0.105469 0 " clip-rule="nonzero"/></clipPath><clipPath id="8df72f7bb8"><path d="M 29.824219 195.683594 L 70.261719 195.683594 L 70.261719 236.125 L 29.824219 236.125 Z M 29.824219 195.683594 " clip-rule="nonzero"/></clipPath><clipPath id="939df4e812"><path d="M 68.980469 222.171875 L 109.417969 222.171875 L 109.417969 262.609375 L 68.980469 262.609375 Z M 68.980469 222.171875 " clip-rule="nonzero"/></clipPath><clipPath id="145f45cb62"><path d="M 114.953125 222.171875 L 155.390625 222.171875 L 155.390625 262.609375 L 114.953125 262.609375 Z M 114.953125 222.171875 " clip-rule="nonzero"/></clipPath><clipPath id="12965ae0b6"><path d="M 155.132812 195.683594 L 195.570312 195.683594 L 195.570312 236.125 L 155.132812 236.125 Z M 155.132812 195.683594 " clip-rule="nonzero"/></clipPath><clipPath id="541101187f"><path d="M 29.824219 142.222656 L 70.261719 142.222656 L 70.261719 182.664062 L 29.824219 182.664062 Z M 29.824219 142.222656 " clip-rule="nonzero"/></clipPath><clipPath id="8ef235d004"><path d="M 92.476562 122.132812 L 132.917969 122.132812 L 132.917969 162.574219 L 92.476562 162.574219 Z M 92.476562 122.132812 " clip-rule="nonzero"/></clipPath><clipPath id="2a04eee493"><path d="M 155.132812 142.222656 L 195.570312 142.222656 L 195.570312 182.664062 L 155.132812 182.664062 Z M 155.132812 142.222656 " clip-rule="nonzero"/></clipPath><clipPath id="67e99fba94"><path d="M 28.800781 65.203125 L 69.238281 65.203125 L 69.238281 105.644531 L 28.800781 105.644531 Z M 28.800781 65.203125 " clip-rule="nonzero"/></clipPath><clipPath id="7188fc65ed"><path d="M 92.351562 45.113281 L 132.789062 45.113281 L 132.789062 85.554688 L 92.351562 85.554688 Z M 92.351562 45.113281 " clip-rule="nonzero"/></clipPath><clipPath id="232d8ef7f0"><path d="M 155.132812 65.203125 L 195.570312 65.203125 L 195.570312 105.644531 L 155.132812 105.644531 Z M 155.132812 65.203125 " clip-rule="nonzero"/></clipPath><clipPath id="2ad8cdeb99"><path d="M 93.320312 268.199219 L 133.757812 268.199219 L 133.757812 308.636719 L 93.320312 308.636719 Z M 93.320312 268.199219 " clip-rule="nonzero"/></clipPath></defs><path fill="#138d75" d="M 1.1875 334.789062 L 1.1875 2.21875 L 223.933594 2.21875 L 223.933594 334.789062 Z M 1.1875 334.789062 " fill-opacity="1" fill-rule="nonzero"/><g clip-path="url(#6f50919653)"><path fill="#138d75" d="M 226.03125 2.21875 L 226.03125 334.789062 C 226.03125 335.066406 225.976562 335.332031 225.871094 335.589844 C 225.765625 335.847656 225.613281 336.074219 225.414062 336.269531 C 225.21875 336.464844 224.992188 336.617188 224.734375 336.722656 C 224.480469 336.832031 224.210938 336.882812 223.933594 336.882812 L 1.1875 336.882812 C 0.90625 336.882812 0.640625 336.832031 0.382812 336.722656 C 0.125 336.617188 -0.101562 336.464844 -0.296875 336.269531 C -0.492188 336.074219 -0.644531 335.847656 -0.753906 335.589844 C -0.859375 335.332031 -0.910156 335.066406 -0.910156 334.789062 L -0.910156 2.21875 C -0.910156 1.941406 -0.859375 1.675781 -0.753906 1.417969 C -0.644531 1.160156 -0.492188 0.933594 -0.296875 0.738281 C -0.101562 0.542969 0.125 0.390625 0.382812 0.285156 C 0.640625 0.179688 0.90625 0.125 1.1875 0.125 L 223.933594 0.125 C 224.210938 0.125 224.480469 0.179688 224.734375 0.285156 C 224.992188 0.390625 225.21875 0.542969 225.414062 0.738281 C 225.613281 0.933594 225.765625 1.160156 225.871094 1.417969 C 225.976562 1.675781 226.03125 1.941406 226.03125 2.21875 Z M 221.835938 332.691406 L 221.835938 4.316406 L 3.28125 4.316406 L 3.28125 332.691406 Z M 221.835938 332.691406 " fill-opacity="1" fill-rule="nonzero"/></g><path fill="#fbfff0" d="M 210.003906 26.160156 L 210.003906 310.75 C 210.003906 311.03125 209.949219 311.296875 209.84375 311.554688 C 209.734375 311.808594 209.585938 312.035156 209.386719 312.234375 C 209.191406 312.429688 208.964844 312.582031 208.707031 312.6875 C 208.449219 312.792969 208.183594 312.847656 207.90625 312.847656 L 17.214844 312.847656 C 16.933594 312.847656 16.667969 312.792969 16.410156 312.6875 C 16.152344 312.582031 15.925781 312.429688 15.730469 312.234375 C 15.535156 312.035156 15.382812 311.808594 15.277344 311.554688 C 15.167969 311.296875 15.117188 311.03125 15.117188 310.75 L 15.117188 26.160156 C 15.117188 25.882812 15.167969 25.613281 15.277344 25.355469 C 15.382812 25.101562 15.535156 24.875 15.730469 24.675781 C 15.925781 24.480469 16.152344 24.328125 16.410156 24.222656 C 16.667969 24.117188 16.933594 24.0625 17.214844 24.0625 L 207.90625 24.0625 C 208.183594 24.0625 208.449219 24.117188 208.707031 24.222656 C 208.964844 24.328125 209.191406 24.480469 209.386719 24.675781 C 209.585938 24.875 209.734375 25.101562 209.84375 25.355469 C 209.949219 25.613281 210.003906 25.882812 210.003906 26.160156 Z M 205.808594 308.65625 L 205.808594 28.253906 L 19.3125 28.253906 L 19.3125 308.65625 Z M 205.808594 308.65625 " fill-opacity="1" fill-rule="nonzero"/><path fill="#fbfff0" d="M 169.636719 267.964844 L 169.636719 310.75 C 169.636719 311.03125 169.585938 311.296875 169.480469 311.554688 C 169.371094 311.808594 169.222656 312.035156 169.023438 312.234375 C 168.828125 312.429688 168.601562 312.582031 168.34375 312.6875 C 168.085938 312.792969 167.820312 312.847656 167.542969 312.847656 C 167.261719 312.847656 166.996094 312.792969 166.738281 312.6875 C 166.480469 312.582031 166.253906 312.429688 166.058594 312.234375 C 165.863281 312.035156 165.710938 311.808594 165.605469 311.554688 C 165.496094 311.296875 165.445312 311.03125 165.445312 310.75 L 165.445312 270.058594 L 59.675781 270.058594 L 59.675781 310.75 C 59.675781 311.03125 59.621094 311.296875 59.515625 311.554688 C 59.410156 311.808594 59.257812 312.035156 59.0625 312.234375 C 58.863281 312.429688 58.636719 312.582031 58.382812 312.6875 C 58.125 312.792969 57.855469 312.847656 57.578125 312.847656 C 57.300781 312.847656 57.03125 312.792969 56.777344 312.6875 C 56.519531 312.582031 56.292969 312.429688 56.09375 312.234375 C 55.898438 312.035156 55.746094 311.808594 55.640625 311.554688 C 55.535156 311.296875 55.480469 311.03125 55.480469 310.75 L 55.480469 267.964844 C 55.480469 267.683594 55.535156 267.417969 55.640625 267.160156 C 55.746094 266.90625 55.898438 266.679688 56.09375 266.480469 C 56.292969 266.285156 56.519531 266.132812 56.777344 266.027344 C 57.03125 265.921875 57.300781 265.867188 57.578125 265.867188 L 167.542969 265.867188 C 167.820312 265.867188 168.085938 265.921875 168.34375 266.027344 C 168.601562 266.132812 168.828125 266.285156 169.023438 266.480469 C 169.222656 266.679688 169.371094 266.90625 169.480469 267.160156 C 169.585938 267.417969 169.636719 267.683594 169.636719 267.964844 Z M 169.636719 267.964844 " fill-opacity="1" fill-rule="nonzero"/><path fill="#fbfff0" d="M 133.058594 310.75 L 133.058594 321.453125 C 133.058594 321.730469 133.007812 321.996094 132.898438 322.253906 C 132.792969 322.511719 132.640625 322.738281 132.445312 322.933594 C 132.25 323.128906 132.023438 323.28125 131.765625 323.386719 C 131.507812 323.492188 131.242188 323.546875 130.960938 323.546875 L 92.210938 323.546875 C 91.933594 323.546875 91.664062 323.492188 91.410156 323.386719 C 91.152344 323.28125 90.925781 323.128906 90.726562 322.933594 C 90.53125 322.738281 90.378906 322.511719 90.273438 322.253906 C 90.167969 321.996094 90.113281 321.730469 90.113281 321.453125 L 90.113281 310.75 C 90.113281 310.472656 90.167969 310.207031 90.273438 309.949219 C 90.378906 309.691406 90.53125 309.464844 90.726562 309.269531 C 90.925781 309.074219 91.152344 308.921875 91.410156 308.816406 C 91.664062 308.710938 91.933594 308.65625 92.210938 308.65625 C 92.488281 308.65625 92.757812 308.710938 93.015625 308.816406 C 93.269531 308.921875 93.496094 309.074219 93.695312 309.269531 C 93.890625 309.464844 94.042969 309.691406 94.148438 309.949219 C 94.253906 310.207031 94.308594 310.472656 94.308594 310.75 L 94.308594 319.355469 L 128.867188 319.355469 L 128.867188 310.75 C 128.867188 310.472656 128.917969 310.207031 129.023438 309.949219 C 129.132812 309.691406 129.28125 309.464844 129.480469 309.269531 C 129.675781 309.074219 129.902344 308.921875 130.160156 308.816406 C 130.417969 308.710938 130.683594 308.65625 130.960938 308.65625 C 131.242188 308.65625 131.507812 308.710938 131.765625 308.816406 C 132.023438 308.921875 132.25 309.074219 132.445312 309.269531 C 132.640625 309.464844 132.792969 309.691406 132.898438 309.949219 C 133.007812 310.207031 133.058594 310.472656 133.058594 310.75 Z M 133.058594 310.75 " fill-opacity="1" fill-rule="nonzero"/><path fill="#fbfff0" d="M 140 296.128906 L 140 310.75 C 140 311.03125 139.949219 311.296875 139.84375 311.554688 C 139.734375 311.808594 139.582031 312.035156 139.386719 312.234375 C 139.191406 312.429688 138.964844 312.582031 138.707031 312.6875 C 138.449219 312.792969 138.183594 312.847656 137.902344 312.847656 C 137.625 312.847656 137.359375 312.792969 137.101562 312.6875 C 136.84375 312.582031 136.617188 312.429688 136.421875 312.234375 C 136.226562 312.035156 136.074219 311.808594 135.964844 311.554688 C 135.859375 311.296875 135.808594 311.03125 135.808594 310.75 L 135.808594 298.226562 L 89.3125 298.226562 L 89.3125 310.75 C 89.3125 311.03125 89.257812 311.296875 89.152344 311.554688 C 89.046875 311.808594 88.894531 312.035156 88.695312 312.234375 C 88.5 312.429688 88.273438 312.582031 88.015625 312.6875 C 87.761719 312.792969 87.492188 312.847656 87.214844 312.847656 C 86.9375 312.847656 86.667969 312.792969 86.410156 312.6875 C 86.15625 312.582031 85.929688 312.429688 85.730469 312.234375 C 85.535156 312.035156 85.382812 311.808594 85.277344 311.554688 C 85.171875 311.296875 85.117188 311.03125 85.117188 310.75 L 85.117188 296.128906 C 85.117188 295.851562 85.171875 295.585938 85.277344 295.328125 C 85.382812 295.070312 85.535156 294.84375 85.730469 294.648438 C 85.929688 294.453125 86.15625 294.300781 86.410156 294.195312 C 86.667969 294.085938 86.9375 294.035156 87.214844 294.035156 L 137.902344 294.035156 C 138.183594 294.035156 138.449219 294.085938 138.707031 294.195312 C 138.964844 294.300781 139.191406 294.453125 139.386719 294.648438 C 139.582031 294.84375 139.734375 295.070312 139.84375 295.328125 C 139.949219 295.585938 140 295.851562 140 296.128906 Z M 140 296.128906 " fill-opacity="1" fill-rule="nonzero"/><path fill="#fbfff0" d="M 210.003906 168.457031 C 210.003906 168.734375 209.949219 169 209.84375 169.257812 C 209.734375 169.515625 209.585938 169.742188 209.386719 169.9375 C 209.191406 170.132812 208.964844 170.285156 208.707031 170.390625 C 208.449219 170.496094 208.183594 170.550781 207.90625 170.550781 L 17.214844 170.550781 C 16.933594 170.550781 16.667969 170.496094 16.410156 170.390625 C 16.152344 170.285156 15.925781 170.132812 15.730469 169.9375 C 15.535156 169.742188 15.382812 169.515625 15.277344 169.257812 C 15.167969 169 15.117188 168.734375 15.117188 168.457031 C 15.117188 168.175781 15.167969 167.910156 15.277344 167.652344 C 15.382812 167.398438 15.535156 167.171875 15.730469 166.972656 C 15.925781 166.777344 16.152344 166.625 16.410156 166.519531 C 16.667969 166.414062 16.933594 166.359375 17.214844 166.359375 L 207.90625 166.359375 C 208.183594 166.359375 208.449219 166.414062 208.707031 166.519531 C 208.964844 166.625 209.191406 166.777344 209.386719 166.972656 C 209.585938 167.171875 209.734375 167.398438 209.84375 167.652344 C 209.949219 167.910156 210.003906 168.175781 210.003906 168.457031 Z M 210.003906 168.457031 " fill-opacity="1" fill-rule="nonzero"/><path fill="#fbfff0" d="M 138.75 169.019531 C 138.75 169.878906 138.710938 170.734375 138.625 171.585938 C 138.542969 172.4375 138.414062 173.285156 138.25 174.125 C 138.082031 174.964844 137.871094 175.796875 137.625 176.617188 C 137.375 177.4375 137.085938 178.242188 136.757812 179.035156 C 136.429688 179.828125 136.0625 180.601562 135.660156 181.355469 C 135.253906 182.113281 134.8125 182.847656 134.335938 183.558594 C 133.859375 184.273438 133.351562 184.960938 132.804688 185.621094 C 132.261719 186.285156 131.6875 186.917969 131.078125 187.523438 C 130.472656 188.128906 129.839844 188.707031 129.175781 189.25 C 128.511719 189.792969 127.824219 190.300781 127.109375 190.777344 C 126.398438 191.253906 125.664062 191.695312 124.90625 192.097656 C 124.148438 192.503906 123.375 192.867188 122.582031 193.195312 C 121.789062 193.523438 120.984375 193.8125 120.164062 194.0625 C 119.339844 194.3125 118.511719 194.519531 117.667969 194.6875 C 116.828125 194.851562 115.980469 194.980469 115.125 195.0625 C 114.273438 195.148438 113.417969 195.1875 112.558594 195.1875 C 111.703125 195.1875 110.847656 195.148438 109.992188 195.0625 C 109.136719 194.980469 108.289062 194.851562 107.449219 194.6875 C 106.609375 194.519531 105.777344 194.3125 104.957031 194.0625 C 104.136719 193.8125 103.328125 193.523438 102.535156 193.195312 C 101.742188 192.867188 100.96875 192.503906 100.210938 192.097656 C 99.457031 191.695312 98.722656 191.253906 98.007812 190.777344 C 97.292969 190.300781 96.605469 189.792969 95.941406 189.25 C 95.28125 188.707031 94.644531 188.128906 94.039062 187.523438 C 93.433594 186.917969 92.855469 186.285156 92.3125 185.621094 C 91.769531 184.960938 91.257812 184.273438 90.78125 183.558594 C 90.304688 182.847656 89.863281 182.113281 89.460938 181.355469 C 89.054688 180.601562 88.6875 179.828125 88.359375 179.035156 C 88.03125 178.242188 87.742188 177.4375 87.496094 176.617188 C 87.246094 175.796875 87.039062 174.964844 86.871094 174.125 C 86.703125 173.285156 86.578125 172.4375 86.492188 171.585938 C 86.410156 170.734375 86.367188 169.878906 86.367188 169.019531 C 86.367188 168.164062 86.410156 167.308594 86.492188 166.457031 C 86.578125 165.601562 86.703125 164.757812 86.871094 163.914062 C 87.039062 163.074219 87.246094 162.246094 87.496094 161.425781 C 87.742188 160.605469 88.03125 159.796875 88.359375 159.007812 C 88.6875 158.214844 89.054688 157.441406 89.460938 156.683594 C 89.863281 155.929688 90.304688 155.195312 90.78125 154.484375 C 91.257812 153.769531 91.769531 153.082031 92.3125 152.421875 C 92.855469 151.757812 93.433594 151.125 94.039062 150.515625 C 94.644531 149.910156 95.28125 149.335938 95.941406 148.792969 C 96.605469 148.25 97.292969 147.738281 98.007812 147.261719 C 98.722656 146.785156 99.457031 146.347656 100.210938 145.941406 C 100.96875 145.539062 101.742188 145.171875 102.535156 144.84375 C 103.328125 144.515625 104.136719 144.230469 104.957031 143.980469 C 105.777344 143.730469 106.609375 143.523438 107.449219 143.355469 C 108.289062 143.1875 109.136719 143.0625 109.992188 142.980469 C 110.847656 142.894531 111.703125 142.851562 112.558594 142.851562 C 113.417969 142.855469 114.273438 142.898438 115.125 142.980469 C 115.980469 143.066406 116.824219 143.191406 117.667969 143.359375 C 118.507812 143.527344 119.339844 143.738281 120.160156 143.988281 C 120.980469 144.234375 121.785156 144.523438 122.578125 144.851562 C 123.371094 145.179688 124.144531 145.546875 124.898438 145.953125 C 125.65625 146.355469 126.390625 146.796875 127.105469 147.273438 C 127.816406 147.75 128.503906 148.257812 129.167969 148.800781 C 129.828125 149.347656 130.464844 149.921875 131.070312 150.527344 C 131.675781 151.132812 132.253906 151.765625 132.796875 152.429688 C 133.339844 153.089844 133.851562 153.777344 134.328125 154.488281 C 134.804688 155.203125 135.246094 155.9375 135.648438 156.691406 C 136.054688 157.445312 136.421875 158.21875 136.75 159.011719 C 137.078125 159.804688 137.367188 160.609375 137.617188 161.429688 C 137.867188 162.246094 138.074219 163.078125 138.242188 163.917969 C 138.410156 164.757812 138.539062 165.605469 138.621094 166.457031 C 138.707031 167.308594 138.75 168.164062 138.75 169.019531 Z M 90.5625 169.019531 C 90.5625 169.742188 90.597656 170.457031 90.667969 171.175781 C 90.738281 171.890625 90.84375 172.601562 90.984375 173.308594 C 91.125 174.015625 91.300781 174.710938 91.507812 175.402344 C 91.71875 176.089844 91.960938 176.765625 92.234375 177.429688 C 92.511719 178.097656 92.820312 178.746094 93.160156 179.382812 C 93.5 180.015625 93.867188 180.632812 94.269531 181.230469 C 94.667969 181.828125 95.097656 182.40625 95.554688 182.964844 C 96.011719 183.519531 96.496094 184.050781 97.003906 184.5625 C 97.515625 185.070312 98.046875 185.554688 98.605469 186.011719 C 99.160156 186.464844 99.738281 186.894531 100.335938 187.292969 C 100.9375 187.695312 101.554688 188.0625 102.191406 188.402344 C 102.824219 188.742188 103.476562 189.050781 104.140625 189.324219 C 104.808594 189.601562 105.484375 189.84375 106.171875 190.050781 C 106.863281 190.261719 107.5625 190.4375 108.269531 190.578125 C 108.972656 190.714844 109.6875 190.820312 110.402344 190.894531 C 111.121094 190.964844 111.839844 191 112.558594 191 C 113.28125 191 114 190.964844 114.714844 190.894531 C 115.433594 190.820312 116.144531 190.714844 116.851562 190.578125 C 117.558594 190.4375 118.253906 190.261719 118.945312 190.050781 C 119.632812 189.84375 120.3125 189.601562 120.976562 189.324219 C 121.644531 189.050781 122.292969 188.742188 122.929688 188.402344 C 123.5625 188.0625 124.179688 187.695312 124.78125 187.292969 C 125.378906 186.894531 125.957031 186.464844 126.515625 186.011719 C 127.070312 185.554688 127.605469 185.070312 128.113281 184.5625 C 128.625 184.050781 129.105469 183.519531 129.5625 182.964844 C 130.019531 182.40625 130.449219 181.828125 130.851562 181.230469 C 131.25 180.632812 131.621094 180.015625 131.960938 179.382812 C 132.300781 178.746094 132.605469 178.097656 132.882812 177.429688 C 133.160156 176.765625 133.402344 176.089844 133.609375 175.402344 C 133.820312 174.710938 133.992188 174.015625 134.132812 173.308594 C 134.273438 172.601562 134.378906 171.890625 134.453125 171.175781 C 134.523438 170.457031 134.558594 169.742188 134.558594 169.019531 C 134.558594 168.300781 134.523438 167.582031 134.453125 166.867188 C 134.378906 166.152344 134.273438 165.4375 134.132812 164.734375 C 133.992188 164.027344 133.820312 163.328125 133.609375 162.640625 C 133.402344 161.953125 133.160156 161.277344 132.882812 160.609375 C 132.605469 159.945312 132.300781 159.296875 131.960938 158.660156 C 131.621094 158.027344 131.25 157.410156 130.851562 156.8125 C 130.449219 156.210938 130.019531 155.636719 129.5625 155.078125 C 129.105469 154.523438 128.625 153.988281 128.113281 153.480469 C 127.605469 152.972656 127.070312 152.488281 126.515625 152.03125 C 125.957031 151.574219 125.378906 151.148438 124.78125 150.746094 C 124.183594 150.347656 123.5625 149.976562 122.929688 149.636719 C 122.292969 149.300781 121.644531 148.992188 120.976562 148.714844 C 120.3125 148.441406 119.632812 148.199219 118.945312 147.988281 C 118.253906 147.78125 117.558594 147.605469 116.851562 147.464844 C 116.144531 147.324219 115.433594 147.21875 114.714844 147.148438 C 114 147.078125 113.28125 147.042969 112.558594 147.042969 C 111.839844 147.042969 111.121094 147.082031 110.402344 147.152344 C 109.6875 147.222656 108.976562 147.328125 108.269531 147.46875 C 107.5625 147.609375 106.867188 147.785156 106.175781 147.996094 C 105.488281 148.203125 104.808594 148.449219 104.144531 148.722656 C 103.480469 149 102.828125 149.304688 102.195312 149.644531 C 101.558594 149.984375 100.941406 150.355469 100.34375 150.753906 C 99.746094 151.15625 99.167969 151.582031 98.609375 152.039062 C 98.054688 152.496094 97.519531 152.980469 97.011719 153.488281 C 96.503906 153.996094 96.019531 154.527344 95.5625 155.085938 C 95.105469 155.640625 94.675781 156.21875 94.277344 156.816406 C 93.875 157.414062 93.507812 158.03125 93.167969 158.664062 C 92.828125 159.300781 92.519531 159.949219 92.242188 160.613281 C 91.964844 161.277344 91.722656 161.957031 91.515625 162.644531 C 91.304688 163.332031 91.128906 164.03125 90.988281 164.734375 C 90.847656 165.441406 90.742188 166.152344 90.667969 166.867188 C 90.597656 167.582031 90.5625 168.300781 90.5625 169.019531 Z M 90.5625 169.019531 " fill-opacity="1" fill-rule="nonzero"/><path fill="#fbfff0" d="M 169.636719 26.160156 L 169.636719 71.164062 C 169.636719 71.445312 169.585938 71.710938 169.480469 71.96875 C 169.371094 72.222656 169.222656 72.449219 169.023438 72.648438 C 168.828125 72.84375 168.601562 72.996094 168.34375 73.101562 C 168.085938 73.207031 167.820312 73.261719 167.542969 73.261719 L 58.480469 73.261719 C 58.199219 73.261719 57.933594 73.207031 57.675781 73.101562 C 57.417969 72.996094 57.191406 72.84375 56.996094 72.648438 C 56.800781 72.449219 56.648438 72.222656 56.542969 71.96875 C 56.433594 71.710938 56.382812 71.445312 56.382812 71.164062 L 56.382812 26.160156 C 56.382812 25.882812 56.433594 25.613281 56.542969 25.355469 C 56.648438 25.101562 56.800781 24.875 56.996094 24.675781 C 57.191406 24.480469 57.417969 24.328125 57.675781 24.222656 C 57.933594 24.117188 58.199219 24.0625 58.480469 24.0625 C 58.757812 24.0625 59.023438 24.117188 59.28125 24.222656 C 59.539062 24.328125 59.765625 24.480469 59.960938 24.675781 C 60.160156 24.875 60.308594 25.101562 60.417969 25.355469 C 60.523438 25.613281 60.574219 25.882812 60.574219 26.160156 L 60.574219 69.070312 L 165.445312 69.070312 L 165.445312 26.160156 C 165.445312 25.882812 165.496094 25.613281 165.605469 25.355469 C 165.710938 25.101562 165.863281 24.875 166.058594 24.675781 C 166.253906 24.480469 166.480469 24.328125 166.738281 24.222656 C 166.996094 24.117188 167.261719 24.0625 167.542969 24.0625 C 167.820312 24.0625 168.085938 24.117188 168.34375 24.222656 C 168.601562 24.328125 168.828125 24.480469 169.023438 24.675781 C 169.222656 24.875 169.371094 25.101562 169.480469 25.355469 C 169.585938 25.613281 169.636719 25.882812 169.640625 26.160156 Z M 169.636719 26.160156 " fill-opacity="1" fill-rule="nonzero"/><path fill="#fbfff0" d="M 130.808594 15.488281 L 130.808594 26.160156 C 130.808594 26.4375 130.753906 26.703125 130.648438 26.960938 C 130.542969 27.21875 130.390625 27.445312 130.191406 27.640625 C 129.996094 27.835938 129.769531 27.988281 129.511719 28.09375 C 129.257812 28.199219 128.988281 28.253906 128.710938 28.253906 C 128.433594 28.253906 128.164062 28.199219 127.90625 28.09375 C 127.652344 27.988281 127.425781 27.835938 127.226562 27.640625 C 127.03125 27.445312 126.878906 27.21875 126.773438 26.960938 C 126.667969 26.703125 126.613281 26.4375 126.613281 26.160156 L 126.613281 17.582031 L 98.859375 17.582031 L 98.859375 26.160156 C 98.859375 26.4375 98.808594 26.703125 98.699219 26.960938 C 98.59375 27.21875 98.441406 27.445312 98.246094 27.640625 C 98.050781 27.835938 97.824219 27.988281 97.566406 28.09375 C 97.308594 28.199219 97.042969 28.253906 96.761719 28.253906 C 96.484375 28.253906 96.21875 28.199219 95.960938 28.09375 C 95.703125 27.988281 95.476562 27.835938 95.28125 27.640625 C 95.082031 27.445312 94.933594 27.21875 94.824219 26.960938 C 94.71875 26.703125 94.667969 26.4375 94.667969 26.160156 L 94.667969 15.488281 C 94.667969 15.210938 94.71875 14.941406 94.824219 14.683594 C 94.933594 14.429688 95.082031 14.203125 95.28125 14.003906 C 95.476562 13.808594 95.703125 13.65625 95.960938 13.550781 C 96.21875 13.445312 96.484375 13.390625 96.761719 13.390625 L 128.710938 13.390625 C 128.988281 13.390625 129.257812 13.445312 129.511719 13.550781 C 129.769531 13.65625 129.996094 13.808594 130.191406 14.003906 C 130.390625 14.203125 130.542969 14.429688 130.648438 14.683594 C 130.753906 14.941406 130.808594 15.210938 130.808594 15.488281 Z M 130.808594 15.488281 " fill-opacity="1" fill-rule="nonzero"/><path fill="#fbfff0" d="M 140.632812 26.160156 L 140.632812 41.71875 C 140.632812 41.996094 140.582031 42.261719 140.472656 42.519531 C 140.367188 42.777344 140.214844 43.003906 140.019531 43.199219 C 139.824219 43.394531 139.59375 43.546875 139.339844 43.652344 C 139.082031 43.761719 138.8125 43.8125 138.535156 43.8125 L 87.125 43.8125 C 86.847656 43.8125 86.578125 43.761719 86.320312 43.652344 C 86.066406 43.546875 85.839844 43.394531 85.640625 43.199219 C 85.445312 43.003906 85.292969 42.777344 85.1875 42.519531 C 85.082031 42.261719 85.027344 41.996094 85.027344 41.71875 L 85.027344 26.160156 C 85.027344 25.882812 85.082031 25.613281 85.1875 25.355469 C 85.292969 25.101562 85.445312 24.875 85.640625 24.675781 C 85.839844 24.480469 86.066406 24.328125 86.320312 24.222656 C 86.578125 24.117188 86.847656 24.0625 87.125 24.0625 C 87.402344 24.0625 87.671875 24.117188 87.925781 24.222656 C 88.183594 24.328125 88.410156 24.480469 88.609375 24.675781 C 88.804688 24.875 88.957031 25.101562 89.0625 25.355469 C 89.167969 25.613281 89.222656 25.882812 89.222656 26.160156 L 89.222656 39.621094 L 136.4375 39.621094 L 136.4375 26.160156 C 136.4375 25.882812 136.492188 25.613281 136.597656 25.355469 C 136.707031 25.101562 136.855469 24.875 137.054688 24.675781 C 137.25 24.480469 137.476562 24.328125 137.734375 24.222656 C 137.992188 24.117188 138.257812 24.0625 138.535156 24.0625 C 138.8125 24.0625 139.082031 24.117188 139.339844 24.222656 C 139.597656 24.328125 139.824219 24.480469 140.019531 24.675781 C 140.214844 24.875 140.367188 25.101562 140.472656 25.355469 C 140.582031 25.613281 140.632812 25.882812 140.632812 26.160156 Z M 140.632812 26.160156 " fill-opacity="1" fill-rule="nonzero"/><path fill="#fbfff0" d="M 133.058594 72.152344 C 133.058594 72.59375 132.933594 72.996094 132.675781 73.355469 C 128.480469 79.296875 121.402344 82.566406 112.738281 82.566406 C 103.929688 82.566406 96.753906 79.117188 92.519531 72.855469 C 92.359375 72.628906 92.25 72.375 92.195312 72.101562 C 92.136719 71.828125 92.132812 71.554688 92.183594 71.28125 C 92.238281 71.003906 92.339844 70.75 92.492188 70.515625 C 92.648438 70.285156 92.839844 70.089844 93.070312 69.933594 C 93.304688 69.777344 93.558594 69.667969 93.832031 69.613281 C 94.105469 69.558594 94.378906 69.558594 94.652344 69.613281 C 94.929688 69.667969 95.183594 69.773438 95.414062 69.929688 C 95.648438 70.085938 95.839844 70.277344 95.996094 70.511719 C 99.425781 75.582031 105.371094 78.378906 112.738281 78.378906 C 117.875 78.378906 124.910156 77.085938 129.25 70.941406 C 129.511719 70.566406 129.859375 70.308594 130.292969 70.164062 C 130.726562 70.015625 131.160156 70.011719 131.597656 70.152344 C 132.035156 70.289062 132.386719 70.542969 132.65625 70.910156 C 132.925781 71.28125 133.058594 71.695312 133.058594 72.152344 Z M 133.058594 72.152344 " fill-opacity="1" fill-rule="nonzero"/><path fill="#fbfff0" d="M 133.007812 266.5625 C 133.011719 267.015625 132.875 267.429688 132.605469 267.800781 C 132.335938 268.167969 131.984375 268.421875 131.546875 268.558594 C 131.113281 268.699219 130.675781 268.695312 130.242188 268.550781 C 129.808594 268.402344 129.460938 268.144531 129.199219 267.769531 C 124.863281 261.625 117.824219 260.332031 112.6875 260.332031 C 105.320312 260.332031 99.375 263.125 95.945312 268.199219 C 95.789062 268.429688 95.59375 268.621094 95.363281 268.773438 C 95.128906 268.925781 94.878906 269.027344 94.605469 269.082031 C 94.332031 269.132812 94.058594 269.132812 93.785156 269.078125 C 93.515625 269.019531 93.261719 268.914062 93.03125 268.761719 C 92.800781 268.605469 92.609375 268.410156 92.457031 268.179688 C 92.304688 267.949219 92.203125 267.695312 92.148438 267.421875 C 92.09375 267.152344 92.097656 266.878906 92.152344 266.605469 C 92.207031 266.332031 92.3125 266.082031 92.46875 265.851562 C 96.703125 259.589844 103.882812 256.140625 112.6875 256.140625 C 121.355469 256.140625 128.433594 259.414062 132.625 265.359375 C 132.878906 265.71875 133.007812 266.121094 133.007812 266.5625 Z M 133.007812 266.5625 " fill-opacity="1" fill-rule="nonzero"/><g clip-path="url(#8df72f7bb8)"><path fill="#ffd666" d="M 69.609375 236.121094 L 30.480469 236.121094 C 30.128906 236.121094 29.839844 235.832031 29.839844 235.480469 L 29.839844 231.824219 C 29.839844 225.742188 34.789062 220.796875 40.867188 220.796875 L 59.222656 220.796875 C 65.300781 220.796875 70.25 225.742188 70.25 231.824219 L 70.25 235.480469 C 70.25 235.832031 69.960938 236.121094 69.609375 236.121094 Z M 50.042969 219.070312 C 43.597656 219.070312 38.351562 213.824219 38.351562 207.378906 C 38.351562 200.929688 43.597656 195.683594 50.042969 195.683594 C 56.492188 195.683594 61.738281 200.929688 61.738281 207.378906 C 61.738281 213.824219 56.492188 219.070312 50.042969 219.070312 Z M 50.042969 219.070312 " fill-opacity="1" fill-rule="nonzero"/></g><g clip-path="url(#939df4e812)"><path fill="#ffd666" d="M 108.765625 262.609375 L 69.636719 262.609375 C 69.285156 262.609375 68.996094 262.320312 68.996094 261.964844 L 68.996094 258.3125 C 68.996094 252.230469 73.945312 247.285156 80.023438 247.285156 L 98.378906 247.285156 C 104.457031 247.285156 109.40625 252.230469 109.40625 258.3125 L 109.40625 261.964844 C 109.40625 262.320312 109.117188 262.609375 108.765625 262.609375 Z M 89.203125 245.558594 C 82.753906 245.558594 77.507812 240.3125 77.507812 233.863281 C 77.507812 227.417969 82.753906 222.171875 89.203125 222.171875 C 95.648438 222.171875 100.894531 227.417969 100.894531 233.863281 C 100.894531 240.3125 95.648438 245.558594 89.203125 245.558594 Z M 89.203125 245.558594 " fill-opacity="1" fill-rule="nonzero"/></g><g clip-path="url(#145f45cb62)"><path fill="#ffd666" d="M 154.734375 262.609375 L 115.609375 262.609375 C 115.253906 262.609375 114.96875 262.320312 114.96875 261.964844 L 114.96875 258.3125 C 114.96875 252.230469 119.914062 247.285156 125.996094 247.285156 L 144.347656 247.285156 C 150.429688 247.285156 155.378906 252.230469 155.378906 258.3125 L 155.378906 261.964844 C 155.378906 262.320312 155.089844 262.609375 154.734375 262.609375 Z M 135.171875 245.558594 C 128.726562 245.558594 123.480469 240.3125 123.480469 233.863281 C 123.480469 227.417969 128.726562 222.171875 135.171875 222.171875 C 141.621094 222.171875 146.867188 227.417969 146.867188 233.863281 C 146.867188 240.3125 141.621094 245.558594 135.171875 245.558594 Z M 135.171875 245.558594 " fill-opacity="1" fill-rule="nonzero"/></g><g clip-path="url(#12965ae0b6)"><path fill="#ffd666" d="M 194.914062 236.121094 L 155.789062 236.121094 C 155.433594 236.121094 155.148438 235.832031 155.148438 235.480469 L 155.148438 231.824219 C 155.148438 225.742188 160.09375 220.796875 166.175781 220.796875 L 184.527344 220.796875 C 190.609375 220.796875 195.558594 225.742188 195.558594 231.824219 L 195.558594 235.480469 C 195.558594 235.832031 195.269531 236.121094 194.914062 236.121094 Z M 175.351562 219.070312 C 168.90625 219.070312 163.660156 213.824219 163.660156 207.378906 C 163.660156 200.929688 168.90625 195.683594 175.351562 195.683594 C 181.800781 195.683594 187.046875 200.929688 187.046875 207.378906 C 187.046875 213.824219 181.800781 219.070312 175.351562 219.070312 Z M 175.351562 219.070312 " fill-opacity="1" fill-rule="nonzero"/></g><g clip-path="url(#541101187f)"><path fill="#ffd666" d="M 69.609375 182.660156 L 30.480469 182.660156 C 30.128906 182.660156 29.839844 182.371094 29.839844 182.019531 L 29.839844 178.363281 C 29.839844 172.28125 34.789062 167.335938 40.867188 167.335938 L 59.222656 167.335938 C 65.300781 167.335938 70.25 172.28125 70.25 178.363281 L 70.25 182.019531 C 70.25 182.371094 69.960938 182.660156 69.609375 182.660156 Z M 50.042969 165.609375 C 43.597656 165.609375 38.351562 160.363281 38.351562 153.917969 C 38.351562 147.46875 43.597656 142.222656 50.042969 142.222656 C 56.492188 142.222656 61.738281 147.46875 61.738281 153.917969 C 61.738281 160.363281 56.492188 165.609375 50.042969 165.609375 Z M 50.042969 165.609375 " fill-opacity="1" fill-rule="nonzero"/></g><g clip-path="url(#8ef235d004)"><path fill="#ffd666" d="M 132.261719 162.570312 L 93.136719 162.570312 C 92.78125 162.570312 92.496094 162.28125 92.496094 161.929688 L 92.496094 158.273438 C 92.496094 152.191406 97.441406 147.246094 103.523438 147.246094 L 121.875 147.246094 C 127.957031 147.246094 132.902344 152.191406 132.902344 158.273438 L 132.902344 161.929688 C 132.902344 162.28125 132.617188 162.570312 132.261719 162.570312 Z M 112.699219 145.519531 C 106.25 145.519531 101.003906 140.273438 101.003906 133.828125 C 101.003906 127.378906 106.25 122.132812 112.699219 122.132812 C 119.148438 122.132812 124.394531 127.378906 124.394531 133.828125 C 124.394531 140.273438 119.148438 145.519531 112.699219 145.519531 Z M 112.699219 145.519531 " fill-opacity="1" fill-rule="nonzero"/></g><g clip-path="url(#2a04eee493)"><path fill="#ffd666" d="M 194.914062 182.660156 L 155.789062 182.660156 C 155.433594 182.660156 155.148438 182.371094 155.148438 182.019531 L 155.148438 178.363281 C 155.148438 172.28125 160.09375 167.335938 166.175781 167.335938 L 184.527344 167.335938 C 190.609375 167.335938 195.558594 172.28125 195.558594 178.363281 L 195.558594 182.019531 C 195.558594 182.371094 195.269531 182.660156 194.914062 182.660156 Z M 175.351562 165.609375 C 168.90625 165.609375 163.660156 160.363281 163.660156 153.917969 C 163.660156 147.46875 168.90625 142.222656 175.351562 142.222656 C 181.800781 142.222656 187.046875 147.46875 187.046875 153.917969 C 187.046875 160.363281 181.800781 165.609375 175.351562 165.609375 Z M 175.351562 165.609375 " fill-opacity="1" fill-rule="nonzero"/></g><g clip-path="url(#67e99fba94)"><path fill="#ffd666" d="M 68.585938 105.640625 L 29.457031 105.640625 C 29.105469 105.640625 28.816406 105.355469 28.816406 105 L 28.816406 101.34375 C 28.816406 95.261719 33.765625 90.316406 39.84375 90.316406 L 58.199219 90.316406 C 64.277344 90.316406 69.226562 95.261719 69.226562 101.34375 L 69.226562 105 C 69.226562 105.355469 68.9375 105.640625 68.585938 105.640625 Z M 49.023438 88.589844 C 42.574219 88.589844 37.328125 83.347656 37.328125 76.898438 C 37.328125 70.449219 42.574219 65.203125 49.023438 65.203125 C 55.46875 65.203125 60.714844 70.449219 60.714844 76.898438 C 60.714844 83.347656 55.46875 88.589844 49.023438 88.589844 Z M 49.023438 88.589844 " fill-opacity="1" fill-rule="nonzero"/></g><g clip-path="url(#7188fc65ed)"><path fill="#ffd666" d="M 132.136719 85.550781 L 93.007812 85.550781 C 92.65625 85.550781 92.367188 85.265625 92.367188 84.910156 L 92.367188 81.253906 C 92.367188 75.171875 97.3125 70.226562 103.394531 70.226562 L 121.746094 70.226562 C 127.828125 70.226562 132.777344 75.171875 132.777344 81.253906 L 132.777344 84.910156 C 132.777344 85.265625 132.488281 85.550781 132.136719 85.550781 Z M 112.570312 68.5 C 106.125 68.5 100.878906 63.253906 100.878906 56.808594 C 100.878906 50.359375 106.125 45.113281 112.570312 45.113281 C 119.019531 45.113281 124.265625 50.359375 124.265625 56.808594 C 124.265625 63.253906 119.019531 68.5 112.570312 68.5 Z M 112.570312 68.5 " fill-opacity="1" fill-rule="nonzero"/></g><g clip-path="url(#232d8ef7f0)"><path fill="#ffd666" d="M 194.914062 105.640625 L 155.789062 105.640625 C 155.433594 105.640625 155.148438 105.355469 155.148438 105 L 155.148438 101.34375 C 155.148438 95.261719 160.09375 90.316406 166.175781 90.316406 L 184.527344 90.316406 C 190.609375 90.316406 195.558594 95.261719 195.558594 101.34375 L 195.558594 105 C 195.558594 105.355469 195.269531 105.640625 194.914062 105.640625 Z M 175.351562 88.589844 C 168.90625 88.589844 163.660156 83.347656 163.660156 76.898438 C 163.660156 70.449219 168.90625 65.203125 175.351562 65.203125 C 181.800781 65.203125 187.046875 70.449219 187.046875 76.898438 C 187.046875 83.347656 181.800781 88.589844 175.351562 88.589844 Z M 175.351562 88.589844 " fill-opacity="1" fill-rule="nonzero"/></g><g clip-path="url(#2ad8cdeb99)"><path fill="#ffd666" d="M 133.105469 308.636719 L 93.976562 308.636719 C 93.625 308.636719 93.335938 308.347656 93.335938 307.996094 L 93.335938 304.339844 C 93.335938 298.257812 98.285156 293.3125 104.363281 293.3125 L 122.71875 293.3125 C 128.796875 293.3125 133.746094 298.257812 133.746094 304.339844 L 133.746094 307.996094 C 133.746094 308.347656 133.457031 308.636719 133.105469 308.636719 Z M 113.539062 291.585938 C 107.09375 291.585938 101.847656 286.339844 101.847656 279.890625 C 101.847656 273.445312 107.09375 268.199219 113.539062 268.199219 C 119.988281 268.199219 125.234375 273.445312 125.234375 279.890625 C 125.234375 286.339844 119.988281 291.585938 113.539062 291.585938 Z M 113.539062 291.585938 " fill-opacity="1" fill-rule="nonzero"/></g></svg>