<svg xmlns="http://www.w3.org/2000/svg" xmlns:xlink="http://www.w3.org/1999/xlink" width="500" zoomAndPan="magnify" viewBox="0 0 375 374.999991" height="500" preserveAspectRatio="xMidYMid meet" version="1.0"><defs><clipPath id="250355946c"><path d="M 67.628906 0 L 321.128906 0 L 321.128906 374.996094 L 67.628906 374.996094 Z M 67.628906 0 " clip-rule="nonzero"/></clipPath><clipPath id="c5b7fe54ed"><path d="M 128.046875 218.667969 L 172.296875 218.667969 L 172.296875 262.917969 L 128.046875 262.917969 Z M 128.046875 218.667969 " clip-rule="nonzero"/></clipPath><clipPath id="86d60ee181"><path d="M 215.976562 218.667969 L 260.226562 218.667969 L 260.226562 262.917969 L 215.976562 262.917969 Z M 215.976562 218.667969 " clip-rule="nonzero"/></clipPath><clipPath id="b4803968f1"><path d="M 171.78125 144.03125 L 216.03125 144.03125 L 216.03125 188.28125 L 171.78125 188.28125 Z M 171.78125 144.03125 " clip-rule="nonzero"/></clipPath><clipPath id="2d2a95c237"><path d="M 171.78125 74.523438 L 216.03125 74.523438 L 216.03125 118.773438 L 171.78125 118.773438 Z M 171.78125 74.523438 " clip-rule="nonzero"/></clipPath><clipPath id="83b7c2a9a8"><path d="M 172.242188 293.304688 L 216.492188 293.304688 L 216.492188 337.554688 L 172.242188 337.554688 Z M 172.242188 293.304688 " clip-rule="nonzero"/></clipPath></defs><path fill="#00a153" d="M 69.972656 372.535156 L 69.972656 0.972656 L 318.816406 0.972656 L 318.816406 372.535156 Z M 69.972656 372.535156 " fill-opacity="1" fill-rule="nonzero"/><g clip-path="url(#250355946c)"><path fill="#00a153" d="M 321.160156 0.972656 L 321.160156 372.535156 C 321.160156 372.84375 321.101562 373.144531 320.980469 373.429688 C 320.863281 373.71875 320.691406 373.96875 320.472656 374.191406 C 320.253906 374.410156 320 374.578125 319.714844 374.695312 C 319.425781 374.816406 319.128906 374.875 318.816406 374.875 L 69.972656 374.875 C 69.660156 374.875 69.363281 374.816406 69.074219 374.695312 C 68.789062 374.578125 68.535156 374.410156 68.316406 374.191406 C 68.09375 373.96875 67.925781 373.71875 67.808594 373.429688 C 67.6875 373.144531 67.628906 372.84375 67.628906 372.535156 L 67.628906 0.972656 C 67.628906 0.664062 67.6875 0.363281 67.808594 0.078125 C 67.925781 -0.210938 68.09375 -0.460938 68.316406 -0.683594 C 68.535156 -0.902344 68.789062 -1.070312 69.074219 -1.1875 C 69.363281 -1.308594 69.660156 -1.367188 69.972656 -1.367188 L 318.816406 -1.367188 C 319.128906 -1.367188 319.425781 -1.308594 319.714844 -1.1875 C 320 -1.070312 320.253906 -0.902344 320.472656 -0.683594 C 320.691406 -0.460938 320.863281 -0.210938 320.980469 0.078125 C 321.101562 0.363281 321.160156 0.664062 321.160156 0.972656 Z M 316.472656 370.195312 L 316.472656 3.3125 L 72.3125 3.3125 L 72.3125 370.195312 Z M 316.472656 370.195312 " fill-opacity="1" fill-rule="nonzero"/></g><path fill="#fbfff0" d="M 303.253906 27.71875 L 303.253906 345.679688 C 303.253906 345.988281 303.195312 346.289062 303.074219 346.574219 C 302.957031 346.863281 302.789062 347.117188 302.566406 347.335938 C 302.347656 347.554688 302.09375 347.722656 301.808594 347.84375 C 301.519531 347.960938 301.222656 348.019531 300.910156 348.019531 L 87.878906 348.019531 C 87.566406 348.019531 87.269531 347.960938 86.980469 347.84375 C 86.695312 347.722656 86.441406 347.554688 86.222656 347.335938 C 86 347.117188 85.832031 346.863281 85.710938 346.574219 C 85.59375 346.289062 85.535156 345.988281 85.535156 345.679688 L 85.535156 27.71875 C 85.535156 27.410156 85.59375 27.109375 85.710938 26.824219 C 85.832031 26.535156 86 26.28125 86.222656 26.0625 C 86.441406 25.84375 86.695312 25.675781 86.980469 25.554688 C 87.269531 25.4375 87.566406 25.378906 87.878906 25.378906 L 300.910156 25.378906 C 301.222656 25.378906 301.519531 25.4375 301.808594 25.554688 C 302.09375 25.675781 302.347656 25.84375 302.566406 26.0625 C 302.789062 26.28125 302.957031 26.535156 303.074219 26.824219 C 303.195312 27.109375 303.253906 27.410156 303.253906 27.71875 Z M 298.566406 343.339844 L 298.566406 30.058594 L 90.21875 30.058594 L 90.21875 343.339844 Z M 298.566406 343.339844 " fill-opacity="1" fill-rule="nonzero"/><path fill="#fbfff0" d="M 258.160156 297.875 L 258.160156 345.679688 C 258.160156 345.988281 258.101562 346.289062 257.984375 346.574219 C 257.863281 346.863281 257.695312 347.117188 257.476562 347.335938 C 257.253906 347.554688 257.003906 347.722656 256.714844 347.84375 C 256.429688 347.960938 256.128906 348.019531 255.820312 348.019531 C 255.507812 348.019531 255.207031 347.960938 254.921875 347.84375 C 254.636719 347.722656 254.382812 347.554688 254.160156 347.335938 C 253.941406 347.117188 253.773438 346.863281 253.652344 346.574219 C 253.535156 346.289062 253.476562 345.988281 253.476562 345.679688 L 253.476562 300.214844 L 135.316406 300.214844 L 135.316406 345.679688 C 135.316406 345.988281 135.253906 346.289062 135.136719 346.574219 C 135.015625 346.863281 134.847656 347.117188 134.628906 347.335938 C 134.410156 347.554688 134.15625 347.722656 133.867188 347.84375 C 133.582031 347.960938 133.28125 348.019531 132.972656 348.019531 C 132.660156 348.019531 132.363281 347.960938 132.074219 347.84375 C 131.789062 347.722656 131.535156 347.554688 131.316406 347.335938 C 131.09375 347.117188 130.925781 346.863281 130.808594 346.574219 C 130.6875 346.289062 130.628906 345.988281 130.628906 345.679688 L 130.628906 297.875 C 130.628906 297.5625 130.6875 297.265625 130.808594 296.976562 C 130.925781 296.691406 131.09375 296.4375 131.316406 296.21875 C 131.535156 296 131.789062 295.832031 132.074219 295.710938 C 132.363281 295.59375 132.660156 295.535156 132.972656 295.535156 L 255.820312 295.535156 C 256.128906 295.535156 256.429688 295.59375 256.714844 295.710938 C 257.003906 295.832031 257.253906 296 257.476562 296.21875 C 257.695312 296.4375 257.863281 296.691406 257.984375 296.976562 C 258.101562 297.265625 258.160156 297.5625 258.160156 297.875 Z M 258.160156 297.875 " fill-opacity="1" fill-rule="nonzero"/><path fill="#fbfff0" d="M 217.296875 345.679688 L 217.296875 357.632812 C 217.296875 357.945312 217.238281 358.242188 217.117188 358.53125 C 217 358.816406 216.832031 359.070312 216.609375 359.289062 C 216.390625 359.507812 216.136719 359.679688 215.851562 359.796875 C 215.5625 359.914062 215.265625 359.976562 214.953125 359.976562 L 171.660156 359.976562 C 171.351562 359.976562 171.050781 359.914062 170.765625 359.796875 C 170.476562 359.679688 170.226562 359.507812 170.003906 359.289062 C 169.785156 359.070312 169.617188 358.816406 169.496094 358.53125 C 169.378906 358.242188 169.320312 357.945312 169.320312 357.632812 L 169.320312 345.679688 C 169.320312 345.371094 169.378906 345.070312 169.496094 344.785156 C 169.617188 344.496094 169.785156 344.242188 170.003906 344.023438 C 170.226562 343.804688 170.476562 343.636719 170.765625 343.515625 C 171.050781 343.398438 171.351562 343.339844 171.660156 343.339844 C 171.972656 343.339844 172.273438 343.398438 172.558594 343.515625 C 172.84375 343.636719 173.097656 343.804688 173.320312 344.023438 C 173.539062 344.242188 173.707031 344.496094 173.828125 344.785156 C 173.945312 345.070312 174.003906 345.371094 174.003906 345.679688 L 174.003906 355.292969 L 212.609375 355.292969 L 212.609375 345.679688 C 212.609375 345.371094 212.671875 345.070312 212.789062 344.785156 C 212.90625 344.496094 213.078125 344.242188 213.296875 344.023438 C 213.515625 343.804688 213.769531 343.636719 214.058594 343.515625 C 214.34375 343.398438 214.644531 343.339844 214.953125 343.339844 C 215.265625 343.339844 215.5625 343.398438 215.851562 343.515625 C 216.136719 343.636719 216.390625 343.804688 216.609375 344.023438 C 216.832031 344.242188 217 344.496094 217.117188 344.785156 C 217.238281 345.070312 217.296875 345.371094 217.296875 345.679688 Z M 217.296875 345.679688 " fill-opacity="1" fill-rule="nonzero"/><path fill="#fbfff0" d="M 225.050781 329.34375 L 225.050781 345.679688 C 225.050781 345.988281 224.992188 346.289062 224.875 346.574219 C 224.753906 346.863281 224.585938 347.117188 224.367188 347.335938 C 224.144531 347.554688 223.890625 347.722656 223.605469 347.84375 C 223.316406 347.960938 223.019531 348.019531 222.707031 348.019531 C 222.398438 348.019531 222.097656 347.960938 221.8125 347.84375 C 221.523438 347.722656 221.273438 347.554688 221.050781 347.335938 C 220.832031 347.117188 220.664062 346.863281 220.542969 346.574219 C 220.425781 346.289062 220.367188 345.988281 220.367188 345.679688 L 220.367188 331.683594 L 168.421875 331.683594 L 168.421875 345.679688 C 168.421875 345.988281 168.363281 346.289062 168.246094 346.574219 C 168.125 346.863281 167.957031 347.117188 167.738281 347.335938 C 167.515625 347.554688 167.261719 347.722656 166.976562 347.84375 C 166.6875 347.960938 166.390625 348.019531 166.078125 348.019531 C 165.769531 348.019531 165.46875 347.960938 165.183594 347.84375 C 164.894531 347.722656 164.644531 347.554688 164.421875 347.335938 C 164.203125 347.117188 164.035156 346.863281 163.914062 346.574219 C 163.796875 346.289062 163.738281 345.988281 163.738281 345.679688 L 163.738281 329.34375 C 163.738281 329.03125 163.796875 328.734375 163.914062 328.449219 C 164.035156 328.160156 164.203125 327.90625 164.421875 327.6875 C 164.644531 327.46875 164.894531 327.300781 165.183594 327.179688 C 165.46875 327.0625 165.769531 327.003906 166.078125 327.003906 L 222.707031 327.003906 C 223.019531 327.003906 223.316406 327.0625 223.605469 327.179688 C 223.890625 327.300781 224.144531 327.46875 224.367188 327.6875 C 224.585938 327.90625 224.753906 328.160156 224.875 328.449219 C 224.992188 328.734375 225.050781 329.03125 225.050781 329.34375 Z M 225.050781 329.34375 " fill-opacity="1" fill-rule="nonzero"/><path fill="#fbfff0" d="M 303.253906 186.699219 C 303.253906 187.007812 303.195312 187.308594 303.074219 187.59375 C 302.957031 187.882812 302.789062 188.136719 302.566406 188.355469 C 302.347656 188.574219 302.09375 188.742188 301.808594 188.863281 C 301.519531 188.980469 301.222656 189.039062 300.910156 189.039062 L 87.878906 189.039062 C 87.566406 189.039062 87.269531 188.980469 86.980469 188.863281 C 86.695312 188.742188 86.441406 188.574219 86.222656 188.355469 C 86 188.136719 85.832031 187.882812 85.710938 187.59375 C 85.59375 187.308594 85.535156 187.007812 85.535156 186.699219 C 85.535156 186.390625 85.59375 186.089844 85.710938 185.804688 C 85.832031 185.515625 86 185.261719 86.222656 185.042969 C 86.441406 184.824219 86.695312 184.65625 86.980469 184.535156 C 87.269531 184.417969 87.566406 184.359375 87.878906 184.359375 L 300.910156 184.359375 C 301.222656 184.359375 301.519531 184.417969 301.808594 184.535156 C 302.09375 184.65625 302.347656 184.824219 302.566406 185.042969 C 302.789062 185.261719 302.957031 185.515625 303.074219 185.804688 C 303.195312 186.089844 303.253906 186.390625 303.253906 186.699219 Z M 303.253906 186.699219 " fill-opacity="1" fill-rule="nonzero"/><path fill="#fbfff0" d="M 223.65625 187.332031 C 223.65625 188.289062 223.609375 189.242188 223.515625 190.195312 C 223.421875 191.148438 223.28125 192.097656 223.09375 193.035156 C 222.90625 193.972656 222.671875 194.902344 222.394531 195.816406 C 222.117188 196.734375 221.792969 197.636719 221.429688 198.519531 C 221.0625 199.402344 220.652344 200.269531 220.199219 201.113281 C 219.75 201.957031 219.257812 202.777344 218.722656 203.574219 C 218.191406 204.371094 217.621094 205.136719 217.011719 205.878906 C 216.40625 206.617188 215.761719 207.328125 215.085938 208.003906 C 214.40625 208.679688 213.699219 209.324219 212.957031 209.929688 C 212.214844 210.539062 211.449219 211.109375 210.652344 211.640625 C 209.855469 212.171875 209.03125 212.664062 208.1875 213.113281 C 207.34375 213.566406 206.476562 213.976562 205.59375 214.34375 C 204.707031 214.707031 203.804688 215.03125 202.886719 215.308594 C 201.972656 215.585938 201.042969 215.820312 200.101562 216.003906 C 199.164062 216.191406 198.214844 216.332031 197.261719 216.425781 C 196.308594 216.519531 195.351562 216.566406 194.394531 216.566406 C 193.4375 216.566406 192.480469 216.519531 191.527344 216.425781 C 190.574219 216.332031 189.625 216.191406 188.6875 216.003906 C 187.746094 215.820312 186.816406 215.585938 185.898438 215.308594 C 184.984375 215.03125 184.082031 214.707031 183.195312 214.34375 C 182.3125 213.976562 181.445312 213.566406 180.601562 213.113281 C 179.753906 212.664062 178.933594 212.171875 178.136719 211.640625 C 177.339844 211.109375 176.570312 210.539062 175.832031 209.929688 C 175.089844 209.324219 174.382812 208.679688 173.703125 208.003906 C 173.027344 207.328125 172.382812 206.617188 171.773438 205.878906 C 171.167969 205.136719 170.597656 204.371094 170.066406 203.574219 C 169.53125 202.777344 169.039062 201.957031 168.589844 201.113281 C 168.136719 200.269531 167.726562 199.402344 167.359375 198.519531 C 166.992188 197.636719 166.671875 196.734375 166.394531 195.816406 C 166.113281 194.902344 165.882812 193.972656 165.695312 193.035156 C 165.507812 192.097656 165.367188 191.148438 165.273438 190.195312 C 165.179688 189.242188 165.132812 188.289062 165.132812 187.332031 C 165.132812 186.375 165.179688 185.417969 165.273438 184.464844 C 165.367188 183.511719 165.507812 182.566406 165.695312 181.628906 C 165.882812 180.6875 166.113281 179.761719 166.394531 178.84375 C 166.671875 177.929688 166.992188 177.027344 167.359375 176.144531 C 167.726562 175.257812 168.136719 174.394531 168.589844 173.550781 C 169.039062 172.703125 169.53125 171.882812 170.066406 171.089844 C 170.597656 170.292969 171.167969 169.523438 171.773438 168.785156 C 172.382812 168.042969 173.027344 167.335938 173.703125 166.660156 C 174.382812 165.980469 175.089844 165.339844 175.832031 164.730469 C 176.570312 164.125 177.339844 163.554688 178.136719 163.023438 C 178.933594 162.492188 179.753906 162 180.601562 161.546875 C 181.445312 161.097656 182.3125 160.6875 183.195312 160.320312 C 184.082031 159.953125 184.984375 159.632812 185.898438 159.355469 C 186.816406 159.074219 187.746094 158.84375 188.6875 158.65625 C 189.625 158.46875 190.574219 158.328125 191.527344 158.234375 C 192.480469 158.140625 193.4375 158.09375 194.394531 158.09375 C 195.351562 158.097656 196.308594 158.144531 197.261719 158.238281 C 198.214844 158.332031 199.160156 158.476562 200.101562 158.664062 C 201.039062 158.851562 201.96875 159.082031 202.882812 159.363281 C 203.800781 159.640625 204.703125 159.964844 205.585938 160.328125 C 206.472656 160.695312 207.335938 161.105469 208.179688 161.558594 C 209.027344 162.007812 209.847656 162.5 210.644531 163.03125 C 211.4375 163.566406 212.207031 164.132812 212.949219 164.742188 C 213.6875 165.347656 214.398438 165.992188 215.074219 166.667969 C 215.753906 167.34375 216.394531 168.054688 217.003906 168.792969 C 217.609375 169.53125 218.179688 170.300781 218.714844 171.097656 C 219.246094 171.890625 219.738281 172.710938 220.191406 173.554688 C 220.640625 174.398438 221.050781 175.265625 221.417969 176.148438 C 221.785156 177.03125 222.109375 177.933594 222.386719 178.847656 C 222.667969 179.765625 222.898438 180.691406 223.085938 181.628906 C 223.273438 182.570312 223.417969 183.515625 223.511719 184.464844 C 223.605469 185.417969 223.652344 186.375 223.65625 187.332031 Z M 169.820312 187.332031 C 169.820312 188.136719 169.859375 188.9375 169.9375 189.738281 C 170.015625 190.539062 170.132812 191.332031 170.292969 192.121094 C 170.449219 192.910156 170.644531 193.6875 170.878906 194.460938 C 171.109375 195.230469 171.382812 195.984375 171.691406 196.726562 C 171.996094 197.472656 172.339844 198.195312 172.722656 198.90625 C 173.101562 199.617188 173.511719 200.304688 173.960938 200.972656 C 174.40625 201.640625 174.886719 202.285156 175.398438 202.910156 C 175.90625 203.53125 176.449219 204.125 177.015625 204.695312 C 177.585938 205.261719 178.183594 205.800781 178.804688 206.3125 C 179.425781 206.820312 180.070312 207.300781 180.742188 207.746094 C 181.410156 208.195312 182.101562 208.605469 182.808594 208.984375 C 183.519531 209.367188 184.246094 209.707031 184.988281 210.015625 C 185.734375 210.324219 186.488281 210.59375 187.261719 210.828125 C 188.03125 211.0625 188.808594 211.257812 189.601562 211.414062 C 190.390625 211.570312 191.183594 211.6875 191.984375 211.765625 C 192.785156 211.847656 193.589844 211.886719 194.394531 211.886719 C 195.199219 211.886719 196.003906 211.847656 196.804688 211.765625 C 197.605469 211.6875 198.398438 211.570312 199.1875 211.414062 C 199.976562 211.257812 200.757812 211.0625 201.527344 210.828125 C 202.296875 210.59375 203.054688 210.324219 203.796875 210.015625 C 204.542969 209.707031 205.269531 209.367188 205.980469 208.984375 C 206.6875 208.605469 207.378906 208.195312 208.046875 207.746094 C 208.714844 207.300781 209.363281 206.820312 209.984375 206.3125 C 210.605469 205.800781 211.203125 205.261719 211.773438 204.695312 C 212.339844 204.125 212.878906 203.53125 213.390625 202.910156 C 213.902344 202.285156 214.378906 201.640625 214.828125 200.972656 C 215.273438 200.304688 215.6875 199.617188 216.066406 198.90625 C 216.445312 198.195312 216.789062 197.472656 217.097656 196.726562 C 217.40625 195.984375 217.675781 195.230469 217.910156 194.460938 C 218.144531 193.6875 218.339844 192.910156 218.496094 192.121094 C 218.65625 191.332031 218.773438 190.539062 218.851562 189.738281 C 218.929688 188.9375 218.96875 188.136719 218.96875 187.332031 C 218.96875 186.527344 218.929688 185.726562 218.851562 184.925781 C 218.773438 184.125 218.65625 183.328125 218.496094 182.539062 C 218.339844 181.753906 218.144531 180.972656 217.910156 180.203125 C 217.675781 179.433594 217.40625 178.675781 217.097656 177.933594 C 216.789062 177.191406 216.445312 176.464844 216.066406 175.757812 C 215.6875 175.046875 215.273438 174.359375 214.828125 173.691406 C 214.378906 173.019531 213.902344 172.375 213.390625 171.753906 C 212.878906 171.132812 212.339844 170.539062 211.773438 169.96875 C 211.203125 169.398438 210.605469 168.859375 209.984375 168.351562 C 209.363281 167.839844 208.714844 167.363281 208.046875 166.914062 C 207.378906 166.46875 206.6875 166.054688 205.980469 165.675781 C 205.269531 165.296875 204.542969 164.953125 203.796875 164.644531 C 203.054688 164.339844 202.296875 164.066406 201.527344 163.835938 C 200.757812 163.601562 199.976562 163.40625 199.1875 163.25 C 198.398438 163.09375 197.605469 162.972656 196.804688 162.894531 C 196.003906 162.816406 195.199219 162.777344 194.394531 162.777344 C 193.589844 162.777344 192.785156 162.816406 191.988281 162.898438 C 191.1875 162.976562 190.390625 163.097656 189.601562 163.253906 C 188.8125 163.410156 188.035156 163.605469 187.261719 163.839844 C 186.492188 164.074219 185.738281 164.34375 184.992188 164.652344 C 184.25 164.960938 183.523438 165.304688 182.816406 165.683594 C 182.105469 166.0625 181.417969 166.476562 180.746094 166.921875 C 180.078125 167.371094 179.433594 167.847656 178.8125 168.359375 C 178.191406 168.871094 177.59375 169.410156 177.023438 169.976562 C 176.457031 170.546875 175.917969 171.140625 175.40625 171.761719 C 174.894531 172.382812 174.417969 173.027344 173.96875 173.695312 C 173.523438 174.363281 173.109375 175.054688 172.730469 175.761719 C 172.347656 176.472656 172.003906 177.195312 171.695312 177.9375 C 171.390625 178.679688 171.117188 179.4375 170.882812 180.207031 C 170.648438 180.976562 170.453125 181.753906 170.296875 182.542969 C 170.136719 183.332031 170.019531 184.125 169.941406 184.925781 C 169.859375 185.726562 169.820312 186.527344 169.820312 187.332031 Z M 169.820312 187.332031 " fill-opacity="1" fill-rule="nonzero"/><path fill="#fbfff0" d="M 258.160156 27.71875 L 258.160156 78.003906 C 258.160156 78.3125 258.101562 78.613281 257.984375 78.898438 C 257.863281 79.183594 257.695312 79.4375 257.476562 79.65625 C 257.253906 79.878906 257.003906 80.046875 256.714844 80.164062 C 256.429688 80.285156 256.128906 80.34375 255.820312 80.34375 L 133.976562 80.34375 C 133.667969 80.34375 133.367188 80.285156 133.082031 80.164062 C 132.792969 80.046875 132.539062 79.878906 132.320312 79.65625 C 132.101562 79.4375 131.933594 79.183594 131.8125 78.898438 C 131.695312 78.613281 131.632812 78.3125 131.632812 78.003906 L 131.632812 27.71875 C 131.632812 27.410156 131.695312 27.109375 131.8125 26.824219 C 131.933594 26.535156 132.101562 26.28125 132.320312 26.0625 C 132.539062 25.84375 132.792969 25.675781 133.082031 25.554688 C 133.367188 25.4375 133.667969 25.378906 133.976562 25.378906 C 134.289062 25.378906 134.585938 25.4375 134.875 25.554688 C 135.160156 25.675781 135.414062 25.84375 135.632812 26.0625 C 135.855469 26.28125 136.023438 26.535156 136.140625 26.824219 C 136.261719 27.109375 136.320312 27.410156 136.320312 27.71875 L 136.320312 75.660156 L 253.476562 75.660156 L 253.476562 27.71875 C 253.476562 27.410156 253.535156 27.109375 253.652344 26.824219 C 253.773438 26.535156 253.941406 26.28125 254.160156 26.0625 C 254.382812 25.84375 254.636719 25.675781 254.921875 25.554688 C 255.207031 25.4375 255.507812 25.378906 255.820312 25.378906 C 256.128906 25.378906 256.429688 25.4375 256.714844 25.554688 C 257.003906 25.675781 257.253906 25.84375 257.476562 26.0625 C 257.695312 26.28125 257.863281 26.535156 257.984375 26.824219 C 258.101562 27.109375 258.160156 27.410156 258.160156 27.71875 Z M 258.160156 27.71875 " fill-opacity="1" fill-rule="nonzero"/><path fill="#fbfff0" d="M 214.78125 15.796875 L 214.78125 27.71875 C 214.78125 28.027344 214.722656 28.328125 214.601562 28.613281 C 214.484375 28.902344 214.3125 29.15625 214.09375 29.375 C 213.875 29.59375 213.621094 29.761719 213.335938 29.882812 C 213.046875 30 212.75 30.058594 212.4375 30.058594 C 212.125 30.058594 211.828125 30 211.539062 29.882812 C 211.253906 29.761719 211 29.59375 210.78125 29.375 C 210.5625 29.15625 210.390625 28.902344 210.273438 28.613281 C 210.152344 28.328125 210.09375 28.027344 210.09375 27.71875 L 210.09375 18.136719 L 179.089844 18.136719 L 179.089844 27.71875 C 179.089844 28.027344 179.03125 28.328125 178.914062 28.613281 C 178.792969 28.902344 178.625 29.15625 178.40625 29.375 C 178.183594 29.59375 177.929688 29.761719 177.644531 29.882812 C 177.355469 30 177.058594 30.058594 176.746094 30.058594 C 176.4375 30.058594 176.136719 30 175.851562 29.882812 C 175.5625 29.761719 175.3125 29.59375 175.089844 29.375 C 174.871094 29.15625 174.703125 28.902344 174.582031 28.613281 C 174.464844 28.328125 174.40625 28.027344 174.40625 27.71875 L 174.40625 15.796875 C 174.40625 15.484375 174.464844 15.1875 174.582031 14.898438 C 174.703125 14.613281 174.871094 14.359375 175.089844 14.140625 C 175.3125 13.921875 175.5625 13.75 175.851562 13.632812 C 176.136719 13.515625 176.4375 13.453125 176.746094 13.453125 L 212.4375 13.453125 C 212.75 13.453125 213.046875 13.515625 213.335938 13.632812 C 213.621094 13.75 213.875 13.921875 214.09375 14.140625 C 214.3125 14.359375 214.484375 14.613281 214.601562 14.898438 C 214.722656 15.1875 214.78125 15.484375 214.78125 15.796875 Z M 214.78125 15.796875 " fill-opacity="1" fill-rule="nonzero"/><path fill="#fbfff0" d="M 225.757812 27.71875 L 225.757812 45.101562 C 225.757812 45.414062 225.699219 45.710938 225.578125 45.996094 C 225.460938 46.285156 225.292969 46.539062 225.070312 46.757812 C 224.851562 46.976562 224.597656 47.144531 224.3125 47.265625 C 224.023438 47.382812 223.726562 47.441406 223.414062 47.441406 L 165.980469 47.441406 C 165.667969 47.441406 165.371094 47.382812 165.082031 47.265625 C 164.796875 47.144531 164.542969 46.976562 164.324219 46.757812 C 164.101562 46.539062 163.933594 46.285156 163.816406 45.996094 C 163.695312 45.710938 163.636719 45.414062 163.636719 45.101562 L 163.636719 27.71875 C 163.636719 27.410156 163.695312 27.109375 163.816406 26.824219 C 163.933594 26.535156 164.101562 26.28125 164.324219 26.0625 C 164.542969 25.84375 164.796875 25.675781 165.082031 25.554688 C 165.371094 25.4375 165.667969 25.378906 165.980469 25.378906 C 166.289062 25.378906 166.589844 25.4375 166.875 25.554688 C 167.164062 25.675781 167.417969 25.84375 167.636719 26.0625 C 167.855469 26.28125 168.027344 26.535156 168.144531 26.824219 C 168.261719 27.109375 168.324219 27.410156 168.324219 27.71875 L 168.324219 42.761719 L 221.070312 42.761719 L 221.070312 27.71875 C 221.070312 27.410156 221.132812 27.109375 221.25 26.824219 C 221.367188 26.535156 221.539062 26.28125 221.757812 26.0625 C 221.976562 25.84375 222.230469 25.675781 222.519531 25.554688 C 222.804688 25.4375 223.105469 25.378906 223.414062 25.378906 C 223.726562 25.378906 224.023438 25.4375 224.3125 25.554688 C 224.597656 25.675781 224.851562 25.84375 225.070312 26.0625 C 225.292969 26.28125 225.460938 26.535156 225.578125 26.824219 C 225.699219 27.109375 225.757812 27.410156 225.757812 27.71875 Z M 225.757812 27.71875 " fill-opacity="1" fill-rule="nonzero"/><path fill="#fbfff0" d="M 217.296875 79.101562 C 217.296875 79.597656 217.152344 80.046875 216.867188 80.449219 C 212.179688 87.085938 204.273438 90.742188 194.59375 90.742188 C 184.753906 90.742188 176.734375 86.886719 172.003906 79.890625 C 171.828125 79.636719 171.707031 79.355469 171.644531 79.046875 C 171.578125 78.742188 171.574219 78.4375 171.632812 78.128906 C 171.691406 77.824219 171.804688 77.539062 171.976562 77.277344 C 172.148438 77.015625 172.363281 76.800781 172.625 76.625 C 172.882812 76.449219 173.164062 76.332031 173.472656 76.269531 C 173.777344 76.207031 174.085938 76.207031 174.390625 76.269531 C 174.699219 76.328125 174.980469 76.445312 175.242188 76.621094 C 175.5 76.792969 175.714844 77.011719 175.886719 77.273438 C 179.71875 82.9375 186.363281 86.058594 194.59375 86.058594 C 200.332031 86.058594 208.191406 84.617188 213.039062 77.75 C 213.332031 77.335938 213.722656 77.042969 214.207031 76.882812 C 214.691406 76.71875 215.175781 76.714844 215.664062 76.867188 C 216.148438 77.023438 216.542969 77.308594 216.84375 77.71875 C 217.148438 78.132812 217.296875 78.59375 217.296875 79.101562 Z M 217.296875 79.101562 " fill-opacity="1" fill-rule="nonzero"/><path fill="#fbfff0" d="M 217.242188 296.308594 C 217.242188 296.816406 217.089844 297.277344 216.789062 297.691406 C 216.488281 298.101562 216.09375 298.386719 215.605469 298.542969 C 215.121094 298.695312 214.632812 298.691406 214.152344 298.527344 C 213.667969 298.367188 213.277344 298.074219 212.984375 297.660156 C 208.140625 290.792969 200.277344 289.347656 194.535156 289.347656 C 186.308594 289.347656 179.664062 292.46875 175.832031 298.136719 C 175.660156 298.394531 175.441406 298.609375 175.183594 298.78125 C 174.921875 298.949219 174.640625 299.066406 174.335938 299.125 C 174.03125 299.183594 173.726562 299.179688 173.421875 299.117188 C 173.117188 299.054688 172.835938 298.9375 172.582031 298.765625 C 172.324219 298.589844 172.109375 298.375 171.9375 298.117188 C 171.765625 297.855469 171.652344 297.574219 171.59375 297.269531 C 171.53125 296.964844 171.535156 296.660156 171.597656 296.359375 C 171.65625 296.054688 171.777344 295.773438 171.949219 295.515625 C 176.679688 288.519531 184.703125 284.667969 194.535156 284.667969 C 204.21875 284.667969 212.128906 288.324219 216.8125 294.964844 C 217.097656 295.367188 217.238281 295.816406 217.242188 296.308594 Z M 217.242188 296.308594 " fill-opacity="1" fill-rule="nonzero"/><g clip-path="url(#c5b7fe54ed)"><path fill="#ffd666" d="M 171.578125 262.914062 L 128.765625 262.914062 C 128.378906 262.914062 128.066406 262.601562 128.066406 262.210938 L 128.066406 258.210938 C 128.066406 251.558594 133.476562 246.144531 140.132812 246.144531 L 160.214844 246.144531 C 166.867188 246.144531 172.28125 251.558594 172.28125 258.210938 L 172.28125 262.210938 C 172.28125 262.601562 171.964844 262.914062 171.578125 262.914062 Z M 150.171875 244.257812 C 143.117188 244.257812 137.378906 238.519531 137.378906 231.460938 C 137.378906 224.40625 143.117188 218.667969 150.171875 218.667969 C 157.226562 218.667969 162.96875 224.40625 162.96875 231.460938 C 162.96875 238.519531 157.226562 244.257812 150.171875 244.257812 Z M 150.171875 244.257812 " fill-opacity="1" fill-rule="nonzero"/></g><g clip-path="url(#86d60ee181)"><path fill="#ffd666" d="M 259.511719 262.914062 L 216.699219 262.914062 C 216.308594 262.914062 215.996094 262.601562 215.996094 262.210938 L 215.996094 258.210938 C 215.996094 251.558594 221.410156 246.144531 228.0625 246.144531 L 248.144531 246.144531 C 254.800781 246.144531 260.210938 251.558594 260.210938 258.210938 L 260.210938 262.210938 C 260.210938 262.601562 259.898438 262.914062 259.511719 262.914062 Z M 238.105469 244.257812 C 231.046875 244.257812 225.308594 238.519531 225.308594 231.460938 C 225.308594 224.40625 231.046875 218.667969 238.105469 218.667969 C 245.160156 218.667969 250.898438 224.40625 250.898438 231.460938 C 250.898438 238.519531 245.160156 244.257812 238.105469 244.257812 Z M 238.105469 244.257812 " fill-opacity="1" fill-rule="nonzero"/></g><g clip-path="url(#b4803968f1)"><path fill="#ffd666" d="M 215.3125 188.277344 L 172.5 188.277344 C 172.113281 188.277344 171.800781 187.964844 171.800781 187.574219 L 171.800781 183.578125 C 171.800781 176.921875 177.214844 171.507812 183.867188 171.507812 L 203.949219 171.507812 C 210.601562 171.507812 216.015625 176.921875 216.015625 183.578125 L 216.015625 187.574219 C 216.015625 187.964844 215.703125 188.277344 215.3125 188.277344 Z M 193.90625 169.621094 C 186.851562 169.621094 181.113281 163.882812 181.113281 156.828125 C 181.113281 149.769531 186.851562 144.03125 193.90625 144.03125 C 200.964844 144.03125 206.703125 149.769531 206.703125 156.828125 C 206.703125 163.882812 200.964844 169.621094 193.90625 169.621094 Z M 193.90625 169.621094 " fill-opacity="1" fill-rule="nonzero"/></g><g clip-path="url(#2d2a95c237)"><path fill="#ffd666" d="M 215.3125 118.769531 L 172.5 118.769531 C 172.113281 118.769531 171.800781 118.453125 171.800781 118.066406 L 171.800781 114.066406 C 171.800781 107.414062 177.214844 102 183.867188 102 L 203.949219 102 C 210.601562 102 216.015625 107.414062 216.015625 114.066406 L 216.015625 118.066406 C 216.015625 118.453125 215.703125 118.769531 215.3125 118.769531 Z M 193.90625 100.113281 C 186.851562 100.113281 181.113281 94.375 181.113281 87.316406 C 181.113281 80.261719 186.851562 74.523438 193.90625 74.523438 C 200.964844 74.523438 206.703125 80.261719 206.703125 87.316406 C 206.703125 94.375 200.964844 100.113281 193.90625 100.113281 Z M 193.90625 100.113281 " fill-opacity="1" fill-rule="nonzero"/></g><g clip-path="url(#83b7c2a9a8)"><path fill="#ffd666" d="M 215.777344 337.550781 L 172.964844 337.550781 C 172.574219 337.550781 172.261719 337.234375 172.261719 336.847656 L 172.261719 332.847656 C 172.261719 326.195312 177.675781 320.78125 184.328125 320.78125 L 204.410156 320.78125 C 211.0625 320.78125 216.476562 326.195312 216.476562 332.847656 L 216.476562 336.847656 C 216.476562 337.234375 216.164062 337.550781 215.777344 337.550781 Z M 194.371094 318.894531 C 187.3125 318.894531 181.574219 313.15625 181.574219 306.097656 C 181.574219 299.042969 187.3125 293.304688 194.371094 293.304688 C 201.425781 293.304688 207.164062 299.042969 207.164062 306.097656 C 207.164062 313.15625 201.425781 318.894531 194.371094 318.894531 Z M 194.371094 318.894531 " fill-opacity="1" fill-rule="nonzero"/></g></svg>