<?xml version="1.0" standalone="no"?>
<!DOCTYPE svg PUBLIC "-//W3C//DTD SVG 20010904//EN"
 "http://www.w3.org/TR/2001/REC-SVG-20010904/DTD/svg10.dtd">
<svg version="1.0" xmlns="http://www.w3.org/2000/svg"
 width="400.000000pt" height="400.000000pt" viewBox="0 0 400.000000 400.000000"
 preserveAspectRatio="xMidYMid meet">

<g transform="translate(0.000000,400.000000) scale(0.100000,-0.100000)"
fill="#FFFFFF" stroke="none">
<path d="M1612 3318 c-7 -7 -12 -29 -12 -49 l0 -37 -108 -3 c-120 -5 -148 -16
-182 -72 -15 -24 -20 -50 -20 -107 0 -86 19 -137 71 -188 51 -51 86 -65 177
-70 l83 -5 19 -36 c26 -52 86 -107 150 -139 53 -26 62 -27 210 -27 148 0 157
1 210 27 64 32 124 87 150 139 l19 36 83 5 c91 5 126 19 177 70 52 51 71 102
71 188 0 57 -5 83 -20 107 -34 56 -62 67 -182 72 l-108 3 0 37 c0 20 -5 42
-12 49 -17 17 -759 17 -776 0z m288 -153 c7 -8 10 -25 6 -40 -5 -21 -12 -25
-45 -25 -49 0 -69 20 -53 55 9 20 19 25 46 25 18 0 39 -7 46 -15z m292 -10
c20 -44 -1 -55 -111 -55 -99 0 -121 7 -121 40 0 33 22 40 122 40 95 0 99 -1
110 -25z m-592 -150 l0 -145 -47 0 c-82 1 -158 48 -182 113 -16 42 -14 129 5
155 14 20 23 22 120 22 l104 0 0 -145z m1024 123 c20 -28 21 -117 2 -161 -28
-66 -98 -107 -182 -107 l-44 0 0 145 0 145 104 0 c97 0 106 -2 120 -22z m-434
-123 c10 -12 10 -21 2 -40 l-12 -25 -180 0 -180 0 -12 25 c-8 19 -8 28 2 40
10 12 43 15 190 15 147 0 180 -3 190 -15z"/>
<path d="M1917 2494 c-4 -4 -7 -27 -7 -51 l0 -43 91 0 90 0 -3 48 -3 47 -80 3
c-45 1 -84 0 -88 -4z"/>
<path d="M1713 2313 c-27 -5 -63 -48 -63 -75 0 -11 13 -33 29 -49 l29 -29 292
0 292 0 29 29 c35 36 37 61 5 98 l-24 28 -284 1 c-155 1 -293 0 -305 -3z"/>
<path d="M1970 2061 c-5 -11 -10 -67 -10 -125 l0 -105 -327 -3 c-321 -3 -329
-3 -359 -25 -49 -35 -64 -86 -64 -218 l0 -115 -142 0 c-159 0 -192 -10 -223
-69 -22 -44 -22 -249 1 -258 38 -14 49 9 54 121 4 92 8 110 24 122 16 11 77
14 323 14 l304 0 24 -25 c23 -22 25 -32 25 -118 0 -102 10 -125 50 -112 21 7
21 12 18 123 -2 98 -6 121 -23 144 -37 49 -52 53 -208 58 l-147 5 -5 95 c-2
52 0 112 6 132 8 31 15 39 47 48 51 14 1273 14 1324 0 47 -13 55 -39 51 -175
l-2 -100 -148 -5 c-121 -4 -153 -8 -175 -23 -45 -31 -58 -73 -58 -190 0 -98 2
-106 20 -112 40 -13 50 10 50 112 0 86 2 96 25 118 l24 25 304 0 c246 0 307
-3 323 -14 16 -12 20 -30 24 -122 5 -112 16 -135 54 -121 13 5 16 24 16 119 0
187 -25 208 -245 208 l-135 0 0 118 c0 148 -17 193 -82 222 -40 18 -68 20
-355 20 l-313 0 0 106 c0 112 -9 144 -40 144 -11 0 -24 -9 -30 -19z"/>
<path d="M690 1028 c-18 -20 -20 -35 -20 -165 0 -139 1 -145 25 -168 23 -24
29 -25 168 -25 195 0 187 -9 187 194 0 135 -2 155 -18 169 -16 14 -43 17 -170
17 -143 0 -152 -1 -172 -22z"/>
<path d="M1460 1023 c-20 -26 -21 -37 -18 -171 4 -189 -3 -182 195 -182 139 0
145 1 168 25 24 23 25 29 25 163 0 126 -2 142 -21 166 l-20 26 -154 0 -154 0
-21 -27z"/>
<path d="M2191 1024 c-19 -24 -21 -40 -21 -166 0 -134 1 -140 25 -163 23 -24
29 -25 168 -25 198 0 191 -7 195 182 3 134 2 145 -18 171 l-21 27 -154 0 -154
0 -20 -26z"/>
<path d="M2967 1032 c-14 -16 -17 -43 -17 -170 0 -200 -8 -192 187 -192 139 0
145 1 168 25 24 23 25 29 25 168 0 195 9 187 -194 187 -135 0 -155 -2 -169
-18z"/>
</g>
</svg>
