<?xml version="1.0" standalone="no"?>
<!DOCTYPE svg PUBLIC "-//W3C//DTD SVG 20010904//EN"
 "http://www.w3.org/TR/2001/REC-SVG-20010904/DTD/svg10.dtd">
<svg version="1.0" xmlns="http://www.w3.org/2000/svg"
 width="500.000000pt" height="500.000000pt" viewBox="0 0 500.000000 500.000000"
 preserveAspectRatio="xMidYMid meet">

<g transform="translate(0.000000,500.000000) scale(0.100000,-0.100000)"
fill="#FFFFFF" stroke="none">
<path d="M1680 3850 l0 -231 73 3 72 3 0 53 0 52 633 0 632 0 0 -55 0 -55 75
0 75 0 -2 228 -3 227 -72 3 -73 3 0 -86 0 -85 -630 0 -629 0 -3 83 -3 82 -72
3 -73 3 0 -231z"/>
<path d="M1320 3889 c-55 -25 -95 -62 -123 -114 l-22 -40 0 -1315 0 -1315 22
-41 c29 -54 93 -110 140 -123 53 -15 2193 -15 2246 0 50 14 110 69 139 127
l23 47 3 1284 c3 1458 8 1358 -76 1442 -59 58 -95 69 -239 69 l-113 0 0 -90 0
-90 103 0 c98 0 105 -1 128 -26 l24 -26 3 -1246 c2 -923 -1 -1254 -9 -1275 -7
-15 -20 -32 -29 -37 -11 -6 -430 -10 -1081 -10 l-1062 -1 -24 22 -23 22 0
1267 0 1267 23 21 c21 20 34 22 125 22 l102 0 0 90 0 90 -117 0 c-97 0 -126
-4 -163 -21z"/>
<path d="M2012 3288 l3 -233 63 -3 62 -3 0 99 c0 54 3 160 7 235 l6 137 -72 0
-71 0 2 -232z"/>
<path d="M1625 3436 c-85 -25 -132 -155 -87 -242 49 -96 145 -129 240 -83 58
28 102 96 102 155 0 135 -115 213 -255 170z m120 -121 c30 -29 32 -55 7 -86
-36 -44 -122 -18 -122 38 0 29 42 73 70 73 12 0 32 -11 45 -25z"/>
<path d="M2210 3255 l0 -105 205 0 205 0 0 105 0 105 -205 0 -205 0 0 -105z"/>
<path d="M2690 3255 l0 -105 355 0 355 0 0 105 0 105 -355 0 -355 0 0 -105z"/>
<path d="M2010 2681 c0 -126 3 -236 6 -245 5 -12 20 -16 64 -16 l57 0 5 93 c3
50 7 161 8 245 l2 152 -71 0 -71 0 0 -229z"/>
<path d="M1675 2843 c-101 -20 -147 -70 -153 -168 -3 -53 0 -65 27 -107 38
-60 80 -82 151 -82 138 1 220 140 158 264 -32 62 -118 106 -183 93z m72 -135
c46 -43 18 -108 -47 -108 -64 0 -92 62 -50 108 26 28 67 28 97 0z"/>
<path d="M2210 2630 l0 -100 205 0 205 0 0 100 0 100 -205 0 -205 0 0 -100z"/>
<path d="M2690 2630 l0 -100 355 0 355 0 0 100 0 100 -355 0 -355 0 0 -100z"/>
<path d="M2017 2283 c-10 -10 -8 -446 2 -462 6 -10 23 -12 60 -9 28 3 54 7 56
10 3 3 8 106 12 230 l6 225 -33 6 c-42 9 -95 9 -103 0z"/>
<path d="M1637 2226 c-77 -29 -117 -88 -117 -174 0 -96 81 -175 181 -176 55 0
100 24 142 77 40 49 48 133 19 187 -42 77 -145 116 -225 86z m113 -126 c41
-41 10 -110 -50 -110 -35 0 -70 34 -70 67 0 32 34 63 70 63 17 0 39 -9 50 -20z"/>
<path d="M2210 2010 l0 -100 205 0 205 0 0 100 0 100 -205 0 -205 0 0 -100z"/>
<path d="M2690 2010 l0 -100 355 0 355 0 0 100 0 100 -355 0 -355 0 0 -100z"/>
<path d="M2012 1453 l3 -228 63 -3 62 -3 0 154 c0 85 3 188 6 230 l7 77 -72 0
-71 0 2 -227z"/>
<path d="M1636 1616 c-82 -31 -122 -97 -114 -190 8 -95 78 -159 173 -159 73 0
139 42 174 110 17 34 13 114 -8 153 -40 76 -144 116 -225 86z m114 -126 c41
-41 10 -110 -50 -110 -37 0 -70 31 -70 65 0 34 33 65 70 65 17 0 39 -9 50 -20z"/>
<path d="M2210 1385 l0 -105 205 0 205 0 0 105 0 105 -205 0 -205 0 0 -105z"/>
<path d="M2690 1385 l0 -105 355 0 355 0 0 105 0 105 -355 0 -355 0 0 -105z"/>
</g>
</svg>
